<svg xmlns="http://www.w3.org/2000/svg" viewBox="0 0 1000 1000" width="1000" height="1000" preserveAspectRatio="xMidYMid meet" style="width: 100%; height: 100%; transform: translate3d(0px, 0px, 0px); content-visibility: visible;"><defs><clipPath id="__lottie_element_4"><rect width="1000" height="1000" x="0" y="0"></rect></clipPath><linearGradient id="__lottie_element_12" spreadMethod="pad" gradientUnits="userSpaceOnUse" x1="0" y1="0" x2="100" y2="0"><stop offset="0%" stop-color="rgb(110,134,255)"></stop><stop offset="50%" stop-color="rgb(167,125,255)"></stop><stop offset="100%" stop-color="rgb(224,116,255)"></stop></linearGradient><radialGradient id="__lottie_element_30" spreadMethod="pad" gradientUnits="userSpaceOnUse" cx="0" cy="0" r="153.4709930419922" fx="0" fy="0"><stop offset="0%" stop-color="rgb(51,181,255)"></stop><stop offset="50%" stop-color="rgb(33,216,255)"></stop><stop offset="100%" stop-color="rgb(16,252,255)"></stop></radialGradient><mask id="__lottie_element_32"><path fill="url(#__lottie_element_31)" d=" M0,-155 C85.54450225830078,-155 155,-85.54450225830078 155,0 C155,85.54450225830078 85.54450225830078,155 0,155 C-85.54450225830078,155 -155,85.54450225830078 -155,0 C-155,-85.54450225830078 -85.54450225830078,-155 0,-155z"></path></mask><radialGradient id="__lottie_element_31" spreadMethod="pad" gradientUnits="userSpaceOnUse" cx="0" cy="0" r="153.4709930419922" fx="0" fy="0"><stop stop-color="rgb(255,255,255)" offset="0%" stop-opacity="1"></stop><stop stop-color="rgb(255,255,255)" offset="52%" stop-opacity="0.5"></stop><stop stop-color="rgb(255,255,255)" offset="100%" stop-opacity="0"></stop></radialGradient></defs><g clip-path="url(#__lottie_element_4)"><g style="display: none;" transform="matrix(0.8665154576301575,0,0,1.2033599615097046,486.859130859375,208.5678253173828)" opacity="1"><g opacity="1" transform="matrix(1.3465299606323242,0,0,1.3465299606323242,11,189)"><path fill="url(#__lottie_element_30)" mask="url(#__lottie_element_32)" fill-opacity="1" d="M0 0 M0,-155 C85.54450225830078,-155 155,-85.54450225830078 155,0 C155,85.54450225830078 85.54450225830078,155 0,155 C-85.54450225830078,155 -155,85.54450225830078 -155,0 C-155,-85.54450225830078 -85.54450225830078,-155 0,-155z"></path></g></g><g transform="matrix(1,0,0,1,96.77499389648438,25.8461856842041)" opacity="0.12300000000728062" style="display: none;"><g opacity="1" transform="matrix(1,0,0,1,407.05499267578125,145.8990020751953)"><path fill="rgb(239,237,239)" fill-opacity="1" d=" M-377.58099365234375,145.6490020751953 C-377.58099365234375,145.6490020751953 -406.80499267578125,35.847999572753906 -406.80499267578125,-28.72599983215332 C-406.80499267578125,-93.3010025024414 -224.6719970703125,-145.6490020751953 0,-145.6490020751953 C224.6719970703125,-145.6490020751953 406.80499267578125,-93.3010025024414 406.80499267578125,-28.72599983215332 C406.80499267578125,35.847999572753906 377.5820007324219,145.6490020751953 377.5820007324219,145.6490020751953"></path></g><g opacity="1" transform="matrix(1,0,0,1,407.05499267578125,291.54901123046875)"><path fill="rgb(199,193,197)" fill-opacity="1" d=" M377.5820007324219,0 C377.5820007324219,64.57499694824219 208.53199768066406,116.9229965209961 -0.0010000000474974513,116.9229965209961 C-208.5330047607422,116.9229965209961 -377.5820007324219,64.57499694824219 -377.5820007324219,0 C-377.5820007324219,-64.5739974975586 -208.5330047607422,-116.9219970703125 -0.0010000000474974513,-116.9219970703125 C208.53199768066406,-116.9219970703125 377.5820007324219,-64.5739974975586 377.5820007324219,0z"></path></g></g><g transform="matrix(0.009999999776482582,0,0,0.009999999776482582,500.1465759277344,476.37445068359375)" opacity="1" style="display: none;"><g opacity="1" transform="matrix(1,0,0,1,368.3399963378906,103.2249984741211)"><path fill="rgb(44,26,61)" fill-opacity="1" d=" M368.0889892578125,11.010000228881836 C368.0889892578125,43.70100021362305 323.6409912109375,77.77799987792969 252.447998046875,102.9749984741211 C292.1310119628906,86.64299774169922 315.6449890136719,66.31999969482422 315.6449890136719,44.28499984741211 C315.6449890136719,-9.694000244140625 174.33099365234375,-43.891998291015625 0,-43.891998291015625 C-174.33099365234375,-43.891998291015625 -315.6449890136719,-9.694000244140625 -315.6449890136719,44.28499984741211 C-315.6449890136719,66.31999969482422 -292.1319885253906,86.64299774169922 -252.44900512695312,102.9749984741211 C-323.6419982910156,77.77799987792969 -368.0889892578125,43.70100021362305 -368.0889892578125,11.010000228881836 C-368.0889892578125,-51.94300079345703 -203.28900146484375,-102.9749984741211 0,-102.9749984741211 C203.28900146484375,-102.9749984741211 368.0889892578125,-51.94300079345703 368.0889892578125,11.010000228881836z"></path></g><g opacity="1" transform="matrix(1,0,0,1,368.3389892578125,152.29600524902344)"><path fill="rgb(75,69,89)" fill-opacity="1" d=" M315.6449890136719,-4.785999774932861 C315.6449890136719,17.24799919128418 292.1310119628906,37.571998596191406 252.44900512695312,53.90399932861328 C187.70399475097656,76.83399963378906 100.85800170898438,92.40599822998047 5.172999858856201,92.9489974975586 C3.4489998817443848,92.96299743652344 1.725000023841858,92.96299743652344 0,92.96299743652344 C-1.7239999771118164,92.96299743652344 -3.447999954223633,92.96299743652344 -5.171999931335449,92.9489974975586 C-100.85600280761719,92.40599822998047 -187.7030029296875,76.83399963378906 -252.447998046875,53.90399932861328 C-292.1300048828125,37.571998596191406 -315.6449890136719,17.24799919128418 -315.6449890136719,-4.785999774932861 C-315.6449890136719,-58.76499938964844 -174.33099365234375,-92.96299743652344 0,-92.96299743652344 C174.33200073242188,-92.96299743652344 315.6449890136719,-58.76499938964844 315.6449890136719,-4.785999774932861z"></path></g><g opacity="1" transform="matrix(1,0,0,1,363.1390075683594,180.64599609375)"><path fill="rgb(0,0,0)" fill-opacity="1" d=" M260.01300048828125,-8.027000427246094 C260.01300048828125,18.861000061035156 143.6009979248047,51.051998138427734 0,51.051998138427734 C-143.6020050048828,51.051998138427734 -260.01300048828125,18.861000061035156 -260.01300048828125,-8.027000427246094 C-260.01300048828125,-34.915000915527344 -143.6020050048828,-51.051998138427734 0,-51.051998138427734 C143.6009979248047,-51.051998138427734 260.01300048828125,-34.915000915527344 260.01300048828125,-8.027000427246094z"></path></g></g></g></g></svg>
